HIERARCHY
ROOT Hips
{
	OFFSET 0.00000 0.00000 0.00000
	CHANNELS 6 Xposition Yposition Zposition Zrotation Yrotation Xrotation 
	JOINT LHipJoint
	{
		OFFSET 0 0 0
		CHANNELS 3 Zrotation Yrotation Xrotation
		JOINT LeftHip
		{
			OFFSET 3.13874 -1.57224 1.49786
			CHANNELS 3 Zrotation Yrotation Xrotation
			JOINT LeftKnee
			{
				OFFSET 2.10955 -5.79594 0.00000
				CHANNELS 3 Zrotation Yrotation Xrotation
				JOINT LeftAnkle
				{
					OFFSET 2.41843 -6.64458 0.00000
					CHANNELS 3 Zrotation Yrotation Xrotation
					JOINT LeftToe
					{
						OFFSET 0.04713 -0.12948 1.66229
						CHANNELS 3 Zrotation Yrotation Xrotation
						End Site
						{
							OFFSET 0.00000 -0.00000 0.85167
						}
					}
				}
			}
		}
	}
	JOINT RHipJoint
	{
		OFFSET 0 0 0
		CHANNELS 3 Zrotation Yrotation Xrotation
		JOINT RightHip
		{
			OFFSET -3.13988 -1.57224 1.49786
			CHANNELS 3 Zrotation Yrotation Xrotation
			JOINT RightKnee
			{
				OFFSET -2.15006 -5.90725 0.00000
				CHANNELS 3 Zrotation Yrotation Xrotation
				JOINT RightAnkle
				{
					OFFSET -2.34496 -6.44273 0.00000
					CHANNELS 3 Zrotation Yrotation Xrotation
					JOINT RightToe
					{
						OFFSET -0.08699 -0.23900 1.55223
						CHANNELS 3 Zrotation Yrotation Xrotation
						End Site
						{
							OFFSET -0.00000 -0.00000 0.80281
						}
					}
				}
			}
		}
	}
	JOINT lowerback
	{
		OFFSET 0 0 0
		CHANNELS 3 Zrotation Yrotation Xrotation
		JOINT Chest
		{
			OFFSET 0.01292 1.96517 -0.16495
			CHANNELS 3 Zrotation Yrotation Xrotation
			JOINT Chest2
			{
				OFFSET 0.02122 1.88666 0.19706
				CHANNELS 3 Zrotation Yrotation Xrotation
				JOINT lowerneck
				{
					OFFSET 0 0 0
					CHANNELS 3 Zrotation Yrotation Xrotation
					JOINT Neck
					{
						OFFSET -0.01683 1.81591 0.07903
						CHANNELS 3 Zrotation Yrotation Xrotation
						JOINT Head
						{
							OFFSET 0.00815 1.74013 -0.47700
							CHANNELS 3 Zrotation Yrotation Xrotation
							End Site
							{
								OFFSET -0.00204 1.83225 -0.16933
							}
						}
					}
				}
				JOINT LeftCollar
				{
					OFFSET 0 0 0
					CHANNELS 3 Zrotation Yrotation Xrotation
					JOINT LeftShoulder
					{
						OFFSET 3.38482 1.41533 0.19802
CHANNELS 3 Zrotation Xrotation Yrotation
						JOINT LeftElbow
						{
OFFSET 0 -4.327120 0.000000
CHANNELS 3 Zrotation Xrotation Yrotation
							JOINT LeftWrist
							{
OFFSET 0 -3.285870 -0.000000
CHANNELS 3 Zrotation Xrotation Yrotation
								JOINT lhand
								{
									OFFSET 0 0 0
CHANNELS 3 Zrotation Xrotation Yrotation
									JOINT LFingers
									{
OFFSET 0 -0.433160 -0.000000
CHANNELS 3 Zrotation Xrotation Yrotation
										End Site
										{
OFFSET 0 -0.349220 -0.000000
										}
									}
								}
								JOINT LThumb
								{
OFFSET 0 0.000000 0.000000
CHANNELS 3 Zrotation Xrotation Yrotation
									End Site
									{
OFFSET 0 -0.354560 0.354560
									}
								}
							}
						}
					}
				}
				JOINT RightCollar
				{
					OFFSET 0 0 0
					CHANNELS 3 Zrotation Yrotation Xrotation
					JOINT RightShoulder
					{
						OFFSET -3.09725 1.62858 -0.14144
CHANNELS 3 Zrotation Xrotation Yrotation
						JOINT RightElbow
						{
OFFSET 0 -4.291040 0.000000
CHANNELS 3 Zrotation Xrotation Yrotation
							JOINT RightWrist
							{
OFFSET 0 -3.227200 -0.000000
CHANNELS 3 Zrotation Xrotation Yrotation
								JOINT rhand
								{
									OFFSET 0 0 0
CHANNELS 3 Zrotation Xrotation Yrotation
									JOINT RFingers
									{
OFFSET 0 -0.543620 -0.000000
CHANNELS 3 Zrotation Xrotation Yrotation
										End Site
										{
OFFSET 0 -0.438280 -0.000000
										}
									}
								}
								JOINT RThumb
								{
OFFSET 0 0.000000 0.000000
CHANNELS 3 Zrotation Xrotation Yrotation
									End Site
									{
OFFSET 0 -0.444970 0.444970
									}
								}
							}
						}
					}
				}
			}
		}
	}
}
MOTION
Frames: 10
Frame Time: 0.008333333333333333
33.848400 15.524800 4.504500 -134.337000 -81.932000 143.487000 0.000000 0.000000 0.000000 -18.033900 -7.584800 -36.156800 8.617200 16.554900 54.756400 1.224200 -13.283100 -20.538300 2.467200 -9.778000 -28.260800 0.000000 0.000000 0.000000 38.886000 10.855700 3.838200 -0.043100 -1.340300 3.685700 -1.547900 -2.755000 -24.633300 -0.068000 1.681900 -4.627400 1.484100 0.645900 8.273100 3.455200 1.290600 -7.465600 2.724700 0.603300 -12.855700 0.558400 1.060300 -18.402100 -2.281500 0.591400 40.733200 -1.263300 -0.614700 18.450000 -0.000000 0.000000 0.000000 3.616400 21.124600 -10.265400 20.158000 -30.832300 5.612100 29.669100 24.501300 -31.586000 0.000000 0.000000 0.000000 -7.125000 0.000000 0.000000 -2.652000 65.246000 1.298300 -0.000000 0.000000 0.000000 -22.973900 13.842200 44.907300 -19.139000 -29.591000 -5.099300 -16.455000 -5.021900 15.212400 0.000000 0.000000 0.000000 7.125000 0.000000 -0.000000 10.433600 45.547100 -0.142400
33.748315 15.517993 4.499793 -133.358322 -81.905899 142.488484 0.000000 0.000000 0.000000 -17.557125 -8.370815 -36.806049 8.184808 16.239203 53.202457 1.290327 -13.378789 -21.027522 2.591480 -9.997191 -28.972325 0.000000 0.000000 0.000000 39.139149 10.800115 4.550814 -0.034581 -1.184474 3.256692 -1.577540 -3.181402 -25.055384 -0.151320 2.356744 -6.499919 1.601222 0.658931 8.369995 3.503239 1.333466 -7.459610 2.703812 0.615475 -12.909885 0.441667 1.020352 -18.366742 -2.269247 0.569189 40.731955 -1.240661 -0.640334 18.438408 0.000000 0.000000 0.000000 3.556575 21.178279 -10.096621 20.105098 -30.768702 5.585027 29.568081 24.783389 -31.767304 0.000000 0.000000 0.000000 -7.125000 0.000000 0.000000 -2.890874 65.406688 1.427481 0.000000 0.000000 0.000000 -23.161350 13.688319 45.352606 -19.344655 -29.843410 -5.201874 -16.709783 -4.845925 16.070299 0.000000 0.000000 0.000000 7.125000 0.000000 0.000000 10.440135 46.452027 -0.378201
33.648230 15.511186 4.495087 -132.379644 -81.879799 141.489968 0.000000 0.000000 0.000000 -17.080350 -9.156830 -37.455298 7.752416 15.923505 51.648515 1.356454 -13.474479 -21.516744 2.715759 -10.216382 -29.683850 0.000000 0.000000 0.000000 39.392298 10.744529 5.263429 -0.026063 -1.028648 2.827684 -1.607181 -3.607803 -25.477468 -0.234640 3.031588 -8.372437 1.718345 0.671962 8.466891 3.551278 1.376332 -7.453619 2.682923 0.627650 -12.964070 0.324933 0.980403 -18.331383 -2.256994 0.546978 40.730711 -1.218023 -0.665968 18.426817 0.000000 0.000000 0.000000 3.496749 21.231959 -9.927842 20.052197 -30.705103 5.557954 29.467063 25.065479 -31.948609 0.000000 0.000000 0.000000 -7.125000 0.000000 0.000000 -3.129747 65.567377 1.556662 0.000000 0.000000 0.000000 -23.348801 13.534438 45.797912 -19.550309 -30.095820 -5.304449 -16.964566 -4.669949 16.928198 0.000000 0.000000 0.000000 7.125000 0.000000 0.000000 10.446670 47.356954 -0.614001
33.547477 15.503026 4.490614 -131.366910 -81.824917 140.456561 0.000000 0.000000 0.000000 -16.552474 -9.919340 -38.019940 7.300625 15.567824 49.981049 1.436537 -13.480335 -22.071609 2.825081 -10.405006 -30.299967 0.000000 0.000000 0.000000 39.674446 10.705571 5.955325 -0.019514 -0.896595 2.464252 -1.633032 -3.957344 -25.836430 -0.289262 3.457618 -9.555540 1.860442 0.686111 8.572834 3.604276 1.425424 -7.451102 2.652352 0.640476 -13.027738 0.222757 0.954261 -18.302001 -2.242922 0.537973 40.748881 -1.195267 -0.684490 18.428915 0.000000 0.000000 0.000000 3.441465 21.282149 -9.729664 19.984604 -30.623625 5.523518 29.340953 25.295816 -32.026340 0.000000 0.000000 0.000000 -7.125000 0.000000 0.000000 -3.339673 65.612506 1.663171 0.000000 0.000000 0.000000 -23.530291 13.364931 46.236624 -19.739136 -30.326294 -5.399260 -17.149699 -4.689884 17.318084 0.000000 0.000000 0.000000 7.125000 0.000000 0.000000 10.383939 47.777507 -0.719735
33.445836 15.493068 4.486452 -130.308880 -81.731756 139.376748 0.000000 0.000000 0.000000 -15.956632 -10.650586 -38.472053 6.823033 15.158966 48.162599 1.535183 -13.366714 -22.713779 2.914508 -10.552974 -30.789189 0.000000 0.000000 0.000000 39.995161 10.688728 6.619667 -0.015585 -0.796160 2.188037 -1.653842 -4.204658 -26.111440 -0.305716 3.552724 -9.821721 2.035756 0.701748 8.690813 3.663868 1.482799 -7.453202 2.608903 0.654169 -13.104017 0.139943 0.946481 -18.280568 -2.226429 0.546530 40.792875 -1.172356 -0.693553 18.449219 0.000000 0.000000 0.000000 3.392220 21.327699 -9.492385 19.897472 -30.518366 5.479291 29.181470 25.457321 -31.966321 0.000000 0.000000 0.000000 -7.125000 0.000000 0.000000 -3.511097 65.503941 1.739528 0.000000 0.000000 0.000000 -23.703854 13.174641 46.666566 -19.905581 -30.527592 -5.483747 -17.242199 -4.970379 17.085512 0.000000 0.000000 0.000000 7.125000 0.000000 0.000000 10.229086 47.553842 -0.652480
33.344195 15.483110 4.482289 -129.250850 -81.638594 138.296935 0.000000 0.000000 0.000000 -15.360790 -11.381833 -38.924167 6.345442 14.750107 46.344149 1.633829 -13.253092 -23.355949 3.003934 -10.700943 -31.278411 0.000000 0.000000 0.000000 40.315877 10.671885 7.284009 -0.011656 -0.695725 1.911821 -1.674653 -4.451973 -26.386450 -0.322170 3.647830 -10.087901 2.211070 0.717385 8.808791 3.723460 1.540174 -7.455303 2.565454 0.667861 -13.180296 0.057129 0.938702 -18.259136 -2.209936 0.555088 40.836869 -1.149445 -0.702616 18.469524 0.000000 0.000000 0.000000 3.342975 21.373249 -9.255106 19.810341 -30.413108 5.435064 29.021988 25.618826 -31.906301 0.000000 0.000000 0.000000 -7.125000 0.000000 0.000000 -3.682521 65.395376 1.815885 0.000000 0.000000 0.000000 -23.877418 12.984351 47.096507 -20.072026 -30.728890 -5.568234 -17.334699 -5.250873 16.852939 0.000000 0.000000 0.000000 7.125000 0.000000 0.000000 10.074232 47.330178 -0.585225
33.240718 15.470982 4.479630 -128.407511 -81.459657 137.463199 0.000000 0.000000 0.000000 -14.646684 -12.033013 -39.257315 5.843276 14.246424 44.294880 1.698050 -13.002409 -23.737885 3.117134 -10.878995 -31.876581 0.000000 0.000000 0.000000 40.665474 10.657747 7.870454 -0.009531 -0.627109 1.723184 -1.695263 -4.589604 -26.603363 -0.350076 3.796525 -10.505433 2.445850 0.750919 8.881260 3.785089 1.628601 -7.456268 2.484375 0.690034 -13.225891 0.001327 0.936799 -18.245449 -2.216715 0.573629 40.871848 -1.140123 -0.706438 18.487125 0.000000 0.000000 0.000000 3.300808 21.406979 -8.943503 19.702341 -30.281706 5.380653 28.635694 25.560732 -31.539970 0.000000 0.000000 0.000000 -7.125000 0.000000 0.000000 -3.957752 64.904975 1.901358 0.000000 0.000000 0.000000 -24.022968 12.771156 47.505413 -20.229824 -30.917600 -5.649315 -17.365329 -5.710700 16.513589 0.000000 0.000000 0.000000 7.125000 0.000000 0.000000 9.950998 46.988316 -0.494531
33.136938 15.458496 4.477218 -127.599596 -81.266567 136.670065 0.000000 0.000000 0.000000 -13.913064 -12.670981 -39.570834 5.337055 13.727094 42.207527 1.756592 -12.729111 -24.076882 3.234257 -11.062011 -32.492728 0.000000 0.000000 0.000000 41.019836 10.644055 8.444046 -0.007703 -0.563744 1.548998 -1.715840 -4.709138 -26.810690 -0.379872 3.954063 -10.947939 2.690442 0.787405 8.946220 3.847053 1.722151 -7.457046 2.397088 0.713606 -13.266423 -0.050019 0.935865 -18.233040 -2.227334 0.593817 40.905339 -1.133044 -0.709394 18.504279 0.000000 0.000000 0.000000 3.259809 21.438759 -8.619637 19.590897 -30.145990 5.324562 28.211976 25.466404 -31.123099 0.000000 0.000000 0.000000 -7.125000 0.000000 0.000000 -4.250110 64.351571 1.988334 0.000000 0.000000 0.000000 -24.163896 12.554182 47.910849 -20.386194 -31.104234 -5.729834 -17.385751 -6.200117 16.156621 0.000000 0.000000 0.000000 7.125000 0.000000 0.000000 9.832981 46.626952 -0.399970
33.032733 15.445831 4.475355 -126.880157 -81.078588 135.974020 0.000000 0.000000 0.000000 -13.165128 -13.327518 -39.830362 4.829872 13.172050 40.045669 1.809765 -12.393678 -24.376776 3.339601 -11.224938 -33.043094 0.000000 0.000000 0.000000 41.354635 10.620866 9.011688 -0.005930 -0.494115 1.357609 -1.734941 -4.835440 -27.010982 -0.417688 4.142584 -11.478942 2.916958 0.828399 8.994435 3.910416 1.818352 -7.459166 2.321019 0.740131 -13.298454 -0.112774 0.929182 -18.210878 -2.232305 0.606858 40.933797 -1.122430 -0.716108 18.515493 0.000000 0.000000 0.000000 3.204997 21.481645 -8.339282 19.490293 -30.023283 5.274008 27.809980 25.209967 -30.562798 0.000000 0.000000 0.000000 -7.125000 0.000000 0.000000 -4.441555 63.655554 2.011957 0.000000 0.000000 0.000000 -24.306827 12.338562 48.289171 -20.545652 -31.293809 -5.812300 -17.436999 -6.595275 15.945621 0.000000 0.000000 0.000000 7.125000 0.000000 0.000000 9.726596 46.418604 -0.343494
32.927474 15.432722 4.474849 -126.379927 -80.903274 135.518523 0.000000 0.000000 0.000000 -12.381719 -14.030058 -39.956120 4.320307 12.528519 37.699215 1.849636 -11.904300 -24.579786 3.415763 -11.338093 -33.430481 0.000000 0.000000 0.000000 41.640964 10.574150 9.564586 -0.004296 -0.408967 1.123598 -1.750383 -4.978507 -27.193842 -0.475374 4.407869 -12.229210 3.098690 0.880562 9.001164 3.977243 1.921121 -7.464612 2.272746 0.773973 -13.309424 -0.203795 0.908255 -18.164551 -2.223281 0.602190 40.949784 -1.103058 -0.732134 18.511992 0.000000 0.000000 0.000000 3.115959 21.552051 -8.166730 19.416542 -29.932806 5.237171 27.461803 24.551888 -29.647135 0.000000 0.000000 0.000000 -7.125000 0.000000 0.000000 -4.382974 62.606198 1.878614 0.000000 0.000000 0.000000 -24.454717 12.126294 48.600318 -20.712759 -31.490672 -5.899587 -17.564624 -6.756897 16.096273 0.000000 0.000000 0.000000 7.125000 0.000000 0.000000 9.649034 46.589366 -0.381381
